<svg xmlns="http://www.w3.org/2000/svg" xmlns:xlink="http://www.w3.org/1999/xlink" width="342" height="361" viewBox="0 0 342 361">
  <defs>
    <clipPath id="clip-path">
      <rect id="Rectangle_121" data-name="Rectangle 121" width="342" height="361" transform="translate(2786.125 -8.319)" fill="none"/>
    </clipPath>
    <linearGradient id="linear-gradient" y1="0.5" x2="1" y2="0.5" gradientUnits="objectBoundingBox">
      <stop offset="0" stop-color="gray" stop-opacity="0.251"/>
      <stop offset="0.54" stop-color="gray" stop-opacity="0.122"/>
      <stop offset="1" stop-color="gray" stop-opacity="0.102"/>
    </linearGradient>
    <linearGradient id="linear-gradient-2" x1="0" y1="0.506" y2="0.506" xlink:href="#linear-gradient"/>
    <linearGradient id="linear-gradient-3" x1="0" y1="0.494" x2="1.008" y2="0.494" xlink:href="#linear-gradient"/>
    <linearGradient id="linear-gradient-4" x1="0" y1="0.506" x2="1.008" y2="0.506" xlink:href="#linear-gradient"/>
  </defs>
  <g id="Mask_Group_2" data-name="Mask Group 2" transform="translate(-2786.125 8.319)" clip-path="url(#clip-path)">
    <g id="undraw_walk_in_the_city_1ma6" transform="translate(2653.125 1.118)">
      <path id="Path_70" data-name="Path 70" d="M-10.73,747.34" transform="translate(10.73 -437.29)" fill="none" stroke="#535461" stroke-miterlimit="10" stroke-width="2"/>
      <path id="Path_71" data-name="Path 71" d="M553.954,675.037c-2.936,1.993-6.013,3.714-9.048,5.431-11.213,6.234-22.594,12.523-34.64,14.663-22.623,3.965-45.968-6.9-68.2-.119-18.619,5.659-34.017,23-52.208,30.721a66.15,66.15,0,0,1-26.137,5h-1.147q-1.65-.027-3.274-.109a137.479,137.479,0,0,1-26.867-4.442c-27.865-7.06-56.224-20-77.528-43.826C316.941,667.428,444.718,644.521,553.954,675.037Z" transform="translate(-95.19 -397.375)" fill="#252223" opacity="0.1"/>
      <path id="Path_74" data-name="Path 74" d="M204.56,646.766" transform="translate(-34.382 -374.1)" fill="none" stroke="#535461" stroke-miterlimit="10" stroke-width="1"/>
      <path id="Path_98" data-name="Path 98" d="M898.615,617.2s-7.2-24.438,1.352-42.435a38.607,38.607,0,0,0,3.123-24.221,64.961,64.961,0,0,0-3.427-11.366" transform="translate(-668.026 -366.463)" fill="none" stroke="#535461" stroke-miterlimit="10" stroke-width="2"/>
      <path id="Path_99" data-name="Path 99" d="M903.581,513.661c0,3-5.431,11.681-5.431,11.681s-5.431-8.689-5.431-11.681a5.431,5.431,0,1,1,10.861,0Z" transform="translate(-666.628 -352.321)" fill="#81003c"/>
      <path id="Path_100" data-name="Path 100" d="M920.055,541.565c-1.629,2.514-10.9,6.859-10.9,6.859s.168-10.242,1.8-12.757a5.431,5.431,0,1,1,9.107,5.9Z" transform="translate(-674.136 -363.63)" fill="#81003c"/>
      <path id="Path_101" data-name="Path 101" d="M917.676,592.447c-2.677,1.347-12.876.418-12.876.418s5.317-8.754,7.989-10.1a5.431,5.431,0,0,1,4.887,9.688Z" transform="translate(-672.148 -386.157)" fill="#81003c"/>
      <path id="Path_102" data-name="Path 102" d="M908.441,632.283c-2.411,1.781-12.621,2.585-12.621,2.585s3.758-9.525,6.169-11.307a5.431,5.431,0,0,1,6.452,8.722Z" transform="translate(-668.045 -404.603)" fill="#81003c"/>
      <path id="Path_103" data-name="Path 103" d="M886.637,554.5c2.172,2.086,12.159,4.253,12.159,4.253s-2.449-9.944-4.6-12.029a5.431,5.431,0,1,0-7.559,7.782Z" transform="translate(-663.01 -369.126)" fill="#81003c"/>
      <path id="Path_104" data-name="Path 104" d="M875.381,600.137c2.677,1.347,12.876.418,12.876.418s-5.317-8.754-7.989-10.1a5.431,5.431,0,0,0-4.888,9.688Z" transform="translate(-657.435 -389.671)" fill="#81003c"/>
      <path id="Path_105" data-name="Path 105" d="M872.01,646.866c2.411,1.781,12.621,2.585,12.621,2.585s-3.78-9.531-6.169-11.312a5.431,5.431,0,0,0-6.452,8.727Z" transform="translate(-656.236 -411.251)" fill="#81003c"/>
      <path id="Path_109" data-name="Path 109" d="M551.894,447.96h.12s-19.056-52.368-24.395-59.466c0,0-5.588-3.3-5.333-8.89l-6.859-33.279s.1-.1.277-.293l.147-.163.168-.2a15.944,15.944,0,0,0,2.276-3.579l.109-.25a13.717,13.717,0,0,0,.641-1.8,1.9,1.9,0,0,0,1.461-.076v-.5h0s-.065-1.971-.071-5.056v-2.786c.212-.766.391-1.57.543-2.428l-.277-.13v-.125l-.234-.109c.19-7.3.809-16.64,2.6-23q.092-.337.2-.668c2.112-6.946,2.172-15.423,2.715-22.592a23.063,23.063,0,0,1,1.086,2.775,4.238,4.238,0,0,1,.918-.777l2.129,17.036v20.094s-3.557,25.915,7.6,21.087,3.047-22.613,3.047-22.613,0-9.906,1.526-14.989c1-3.345.358-14.163-.206-21.18,1.086.19,1.727.342,1.727.342a11.886,11.886,0,0,0,.331-3.112c.233-11.714-14.212-30.586-20.094-37.787a16.883,16.883,0,0,0-6.783-5.974l-11.3-5.474s-5.338-1.3-7.418-5.431a1.016,1.016,0,0,0-.054-.212q.353-.157.7-.342a12.523,12.523,0,0,0,4.421-3.552c2.406-3.058,3.557-6.886,4.654-10.617,1.293-4.388,2.6-8.868,2.422-13.441s-2.1-9.325-5.974-11.752c-3.313-2.075-7.934-2.466-9.992-5.789a12.814,12.814,0,0,0-1.629-2.683.619.619,0,0,0-.5-.641l-5.691-1.119a.619.619,0,0,0-.728.489V177a34.42,34.42,0,0,0-14.625,3.715,33.277,33.277,0,0,0-4.627,2.715c-2.091,1.477-4.149,3.438-4.448,5.974-.147,1.265.157,2.563-.1,3.8-.69,3.318-5.137,5.48-4.486,8.809.44,2.259,3,3.231,5.393,3.258A18.041,18.041,0,0,0,476.983,227.8a52.11,52.11,0,0,1,4.562,7.766c-2.927,2.781-9.058,9.232-5.3,11.4l-7.82,19.322.76,19.914-3.3,2.943.722.9c-3.693,4.3-12.241,13.7-18.492,16.205a19.312,19.312,0,0,0-2.607,1.282A10.52,10.52,0,0,1,441.771,309a10.326,10.326,0,0,0-1.716.337l-1.493-3.1a2.227,2.227,0,0,0-2.976-1.037l-.918.44h0L432.5,306.7l-.907.44h0l-.684.331a2.227,2.227,0,0,0-1.037,2.971l1.808,3.747c-2.569,2.265-3.829,4.969-.326,7.489a7.6,7.6,0,0,0,4.643,1.466l1.086,2.275a2.226,2.226,0,0,0,2.976,1.037l1.591-.771,3.085-1.488a2.227,2.227,0,0,0,1.037-2.976l-.9-1.874a36.744,36.744,0,0,0,5.518-5.295s4.638-2.905,7.369-3.557c1.809-.429,8.146-4.594,12.078-7.234l1.119,29.326a6.227,6.227,0,0,1-.858,1.054l.874-.619v.217a4.859,4.859,0,0,1-.375.4l.38-.271v.353a4.907,4.907,0,0,1-.4.424l.4-.282.163,3.079,1.911-3.172.12,3.172.445-.739c-5.366,9.118-12.355,22.543-16.091,36.049,0,0-5.843,10.161-5.083,20.577l-10.671,51.592.206.076c-3.476,2.509-10.8,7.109-17.986,7.293,0,0-17.275-.511-12.447,3.3s47.763,9.4,47.763,9.4l1.629-12.844.38.141v-.2l.543.2s-1.037-6.387,2.764-9.944,12.7-39.644,11.947-45.221c0,0,6.821-17.047,15.358-30.64l10.036,25.807L513.141,411.1s14.869,33.062,14.391,40.426c-3.123,3.8-8.689,9.775-12.865,9.618,0,0-17.02,3.3-5.333,6.354s45.982-8.363,45.982-8.363Zm-74.4-118.2.1-.06c-.543.82-1.086,1.727-1.705,2.715Z" transform="translate(-181.83 -176.418)" fill="url(#linear-gradient)"/>
      <path id="Path_110" data-name="Path 110" d="M519.526,465.94c-.418.3-.646.472-.646.472A2.753,2.753,0,0,0,519.526,465.94Z" transform="translate(-231.265 -308.71)" fill="url(#linear-gradient-2)"/>
      <path id="Path_111" data-name="Path 111" d="M520.456,466.88c-.418.3-.646.472-.646.472A2.753,2.753,0,0,0,520.456,466.88Z" transform="translate(-231.69 -309.139)" fill="url(#linear-gradient-3)"/>
      <path id="Path_112" data-name="Path 112" d="M520.456,465.94c-.418.3-.646.472-.646.472A2.748,2.748,0,0,0,520.456,465.94Z" transform="translate(-231.69 -308.71)" fill="url(#linear-gradient-4)"/>
      <path id="Path_113" data-name="Path 113" d="M607.8,669.352s-8.917,12.632-14.864,12.382c0,0-16.6,3.22-5.2,6.191s44.83-8.173,44.83-8.173L628.594,666.8Z" transform="translate(-260.903 -400.489)" fill="#333"/>
      <path id="Path_114" data-name="Path 114" d="M554.62,482.861l12.632,32.448,10.927,18.85s14.983,33.312,13.995,39.753l23.9-3.84s-18.578-51.048-23.776-57.956c0,0-5.431-3.22-5.2-8.689L580.4,470.979s6.517-6.278,2.867-14.12a13.164,13.164,0,0,0-.641-1.216c-5-8.423-23.8-3.736-23.8-3.736Z" transform="translate(-247.596 -301.703)" fill="#535461"/>
      <path id="Path_115" data-name="Path 115" d="M554.62,482.861l12.632,32.448,10.927,18.85s14.983,33.312,13.995,39.753l23.9-3.84s-18.578-51.048-23.776-57.956c0,0-5.431-3.22-5.2-8.689L580.4,470.979s6.517-6.278,2.867-14.12a13.164,13.164,0,0,0-.641-1.216c-5-8.423-23.8-3.736-23.8-3.736Z" transform="translate(-247.596 -301.703)" opacity="0.03"/>
      <g id="Group_13" data-name="Group 13" transform="translate(321.747 148.914)" opacity="0.1">
        <path id="Path_116" data-name="Path 116" d="M604.658,512.125s-5.431-3.22-5.2-8.689l-6.685-32.448s6.517-6.278,2.867-14.12a13.142,13.142,0,0,0-.641-1.217c-2.4-4.084-8.07-5.083-13.267-5.023,4.985.043,10.231,1.135,12.523,5.023a13.171,13.171,0,0,1,.641,1.217c3.633,7.864-2.867,14.12-2.867,14.12l6.685,32.465c-.25,5.431,5.2,8.689,5.2,8.689,5.2,6.935,23.776,57.956,23.776,57.956l-23.146,3.72v.12l23.9-3.839S609.861,519.06,604.658,512.125Z" transform="translate(-581.73 -450.626)"/>
      </g>
      <path id="Path_117" data-name="Path 117" d="M446.542,661.47s-9.906,8.423-19.55,8.689c0,0-16.835-.494-12.138,3.22s46.563,9.167,46.563,9.167l1.863-14.494Z" transform="translate(-183.354 -398.053)" fill="#333"/>
      <g id="Group_14" data-name="Group 14" transform="translate(261.45 145.055)" opacity="0.1">
        <path id="Path_118" data-name="Path 118" d="M508.845,446.708s-16.346,23.037-22.809,46.318c0,0-5.7,9.906-4.953,20.061L470.7,563.371l19.073,7.185s-.988-6.191,2.715-9.661,12.382-38.639,11.643-44.086c0,0,11.888-29.722,23.776-41.366s17.807-14.326,19.551-24.378C547.469,451.064,519.495,437.541,508.845,446.708Z" transform="translate(-470.7 -443.521)"/>
      </g>
      <path id="Path_119" data-name="Path 119" d="M507.887,446.708s-16.346,23.037-22.809,46.318c0,0-5.7,9.906-4.953,20.061L469.72,563.37l19.073,7.185s-.988-6.191,2.715-9.661,12.382-38.639,11.643-44.086c0,0,11.888-29.722,23.776-41.366s17.807-14.326,19.551-24.378C546.526,451.064,518.553,437.541,507.887,446.708Z" transform="translate(-208.802 -298.466)" fill="#535461"/>
      <g id="Group_15" data-name="Group 15" transform="translate(279.407 144.808)" opacity="0.1">
        <path id="Path_120" data-name="Path 120" d="M534.017,443.068c12.279.147,27.572,7.538,27.572,7.538-1.749,10.052-7.663,12.735-19.55,24.378s-23.781,41.36-23.781,41.36c.744,5.431-7.923,40.622-11.643,44.086-3.258,3.019-2.9,8.1-2.764,9.368l.782.293s-.988-6.191,2.715-9.661,12.4-38.656,11.654-44.086c0,0,11.888-29.722,23.776-41.366s17.807-14.326,19.551-24.378C562.333,450.633,546.41,442.916,534.017,443.068Z" transform="translate(-503.766 -443.066)"/>
      </g>
      <path id="Path_121" data-name="Path 121" d="M485.493,383.26s-11.823,14.723-19.8,17.921a18.852,18.852,0,0,0-2.542,1.249,10.258,10.258,0,0,1-3.649,1.428,8.94,8.94,0,0,0-2.764.728c-4.149,1.912-13.718,7.06-7.4,11.622,7.923,5.7,18.578-7.429,18.578-7.429s4.524-2.835,7.185-3.47,14.853-9.156,14.853-9.156Z" transform="translate(-198.529 -270.931)" fill="#fda57d"/>
      <path id="Path_122" data-name="Path 122" d="M395.323,268.03l-4.7,4.214,6.935,8.667Z" transform="translate(-106.133 -158.677)" fill="#4d8af0"/>
      <g id="Group_16" data-name="Group 16" transform="translate(284.487 109.353)" opacity="0.1">
        <path id="Path_123" data-name="Path 123" d="M395.323,268.03l-4.7,4.214,6.935,8.667Z" transform="translate(-390.62 -268.03)"/>
      </g>
      <path id="Path_124" data-name="Path 124" d="M531.828,287s-11.274,9.661-6.555,12.382l-7.6,18.823,2.623,68.856,10.747-17.834L523.7,330.587s-2.1-23.037,3.932-28.484l5.768-11.4Z" transform="translate(-230.712 -226.947)" fill="#4d8af0"/>
      <g id="Group_17" data-name="Group 17" transform="translate(288.94 60.054)" opacity="0.1">
        <path id="Path_125" data-name="Path 125" d="M535.478,287s-11.274,9.661-6.555,12.382l-7.6,18.823,2.623,68.856,10.747-17.834-7.342-38.639s-2.1-23.037,3.932-28.484l5.767-11.4Z" transform="translate(-521.32 -287)"/>
      </g>
      <path id="Path_126" data-name="Path 126" d="M527.71,257.675s9.167,11.144,8.917,17.585,17.34-11.144,17.34-11.144-6.685-8.173-4.953-16.835S527.71,257.675,527.71,257.675Z" transform="translate(-235.3 -207.766)" fill="#fda57d"/>
      <path id="Path_127" data-name="Path 127" d="M623.95,368.476l2.476,19.816v19.551s-3.47,25.264,7.429,20.561,2.971-22.043,2.971-22.043,0-9.661,1.488-14.614-.76-26.746-.76-26.746Z" transform="translate(-279.275 -262.587)" fill="#fda57d"/>
      <path id="Path_128" data-name="Path 128" d="M545.611,285.2s-6.685,6.441-10.155,4.209L530.7,301.231a54.305,54.305,0,0,0-3.867,22.776l1.694,44.662,7.429-.988,2.476-42.359,3.715-25.758Z" transform="translate(-234.872 -226.124)" fill="#f2f2f2"/>
      <g id="Group_18" data-name="Group 18" transform="translate(287.979 52.266)" opacity="0.1">
        <path id="Path_129" data-name="Path 129" d="M547.887,272.66s-8.8,6.066-11.258,11.269c0,0-.25,5.7-2.227,8.173s-3.964,14.864-4.459,29.722-2.715,34.675-2.715,34.675-3.715,19.317-7.679,21.3c0,0,18.329-13.87,27.246-9.167s19.073,16.1,22.043,14.364c0,0-.717-21.723,2.536-33.285q.092-.331.19-.646c3.47-11.4,1.238-27,5.2-33.67,0,0,0-12.1-2.286-21.147a16.342,16.342,0,0,0-8.744-10.671l-11.013-5.333S548.876,277.363,547.887,272.66Z" transform="translate(-519.55 -272.66)"/>
      </g>
      <g id="Group_19" data-name="Group 19" transform="translate(288.462 52.266)" opacity="0.1">
        <path id="Path_130" data-name="Path 130" d="M548.294,272.66s-8.3,6.566-10.775,11.763c0,0-.25,5.7-2.227,8.173s-3.964,14.864-4.459,29.722-2.715,34.675-2.715,34.675-3.715,19.317-7.679,21.3c0,0,18.329-13.87,27.246-9.167s19.073,16.1,22.043,14.364c0,0-.717-21.723,2.536-33.285q.092-.331.19-.646c3.47-11.4,1.238-27,5.2-33.67,0,0,0-12.105-2.286-21.147a16.341,16.341,0,0,0-8.743-10.671l-11.013-5.333S549.283,277.363,548.294,272.66Z" transform="translate(-520.44 -272.66)"/>
      </g>
      <path id="Path_131" data-name="Path 131" d="M548.169,272.43s-8.173,6.191-10.65,11.4c0,0-.25,5.7-2.227,8.173s-3.964,14.864-4.458,29.722-2.715,34.675-2.715,34.675-3.715,19.317-7.679,21.3c0,0,18.329-13.87,27.246-9.167s19.056,16.075,22.032,14.359c0,0-.717-21.723,2.536-33.285q.092-.331.19-.646c3.47-11.4,1.238-27,5.2-33.67,0,0,0-12.105-2.286-21.147a16.343,16.343,0,0,0-8.744-10.671L555.6,278.143S550.027,276.764,548.169,272.43Z" transform="translate(-231.978 -220.289)" fill="#4d8af0"/>
      <g id="Group_20" data-name="Group 20" transform="translate(324.997 64.883)" opacity="0.1">
        <path id="Path_132" data-name="Path 132" d="M601.571,297.64s25.139,28.609,21.674,42.229c0,0-12.882-2.971-16.346.988,0,0-2.715-9.167-10.9-14.364S580.267,287.979,601.571,297.64Z" transform="translate(-587.715 -295.893)"/>
      </g>
      <path id="Path_133" data-name="Path 133" d="M601.571,296.73s25.139,28.609,21.674,42.229c0,0-12.882-2.971-16.346.988,0,0-2.715-9.167-10.9-14.364S580.267,287.069,601.571,296.73Z" transform="translate(-262.718 -230.594)" fill="#4d8af0"/>
      <g id="Group_21" data-name="Group 21" transform="translate(293.404 38.47)" opacity="0.1">
        <path id="Path_134" data-name="Path 134" d="M550.47,253.867c-.391-2-.065-2.172.369-4.345,1.733-8.689-21.3,10.405-21.3,10.405s1.282,1.559,2.873,3.85a17.668,17.668,0,0,0,3.568.364C542.28,264.148,547.358,258.831,550.47,253.867Z" transform="translate(-529.54 -247.256)"/>
      </g>
      <circle id="Ellipse_7" data-name="Ellipse 7" cx="17.585" cy="17.585" r="17.585" transform="translate(281.267 18.949)" fill="#fda57d"/>
      <g id="Group_22" data-name="Group 22" transform="translate(276.599 4.468)" opacity="0.1">
        <path id="Path_135" data-name="Path 135" d="M505.05,211.9c-2.59.348-5.892-.543-6.392-3.079-.63-3.258,3.7-5.349,4.377-8.586.25-1.216-.049-2.482.1-3.709.293-2.482,2.3-4.388,4.345-5.833a33.35,33.35,0,0,1,22.179-5.909,4.979,4.979,0,0,1,2.748.869,10.182,10.182,0,0,1,1.765,2.781c2.009,3.258,6.517,3.622,9.743,5.643,3.8,2.362,5.654,7,5.822,11.453s-1.086,8.825-2.362,13.1c-1.086,3.639-2.172,7.375-4.54,10.351s-6.24,5.061-9.927,4.165c1.689-1.217.462-4.04-1.369-5.034s-4.1-1.162-5.664-2.531-2.031-3.606-2.542-5.642a14.878,14.878,0,0,0-3.448-7.06C516.193,209.217,509.562,211.291,505.05,211.9Z" transform="translate(-498.595 -184.646)"/>
      </g>
      <path id="Path_136" data-name="Path 136" d="M505.96,211.449c-2.59.348-5.892-.543-6.392-3.079-.63-3.258,3.7-5.349,4.377-8.586.25-1.216-.049-2.482.1-3.709.293-2.482,2.3-4.388,4.344-5.833a33.35,33.35,0,0,1,22.179-5.909,4.981,4.981,0,0,1,2.748.869,10.189,10.189,0,0,1,1.765,2.781c2.009,3.258,6.517,3.622,9.743,5.642,3.8,2.362,5.653,7,5.822,11.453s-1.086,8.825-2.363,13.1c-1.086,3.639-2.172,7.375-4.54,10.351s-6.24,5.061-9.927,4.165c1.689-1.216.462-4.04-1.368-5.034s-4.1-1.162-5.664-2.531-2.026-3.606-2.569-5.642a14.878,14.878,0,0,0-3.448-7.06C517.109,208.761,510.472,210.841,505.96,211.449Z" transform="translate(-222.412 -179.972)" fill="#72351c"/>
      <path id="Path_137" data-name="Path 137" d="M548.821,193.144,550.412,185a.6.6,0,0,0-.478-.711l-5.621-1.086a.6.6,0,0,0-.711.478l-1.591,8.146-5.431,20.137,9.965,1.944Z" transform="translate(-239.353 -179.512)" fill="#cbdae3"/>
      <g id="Group_23" data-name="Group 23" transform="translate(292.535 28.241)" opacity="0.1">
        <circle id="Ellipse_8" data-name="Ellipse 8" cx="8.667" cy="8.667" r="8.667"/>
      </g>
      <circle id="Ellipse_9" data-name="Ellipse 9" cx="8.667" cy="8.667" r="8.667" transform="translate(292.535 28.485)" fill="#cbdae3"/>
      <circle id="Ellipse_10" data-name="Ellipse 10" cx="5.681" cy="5.681" r="5.681" transform="translate(295.522 31.472)" fill="#e9e9e9"/>
      <circle id="Ellipse_11" data-name="Ellipse 11" cx="1.732" cy="1.732" r="1.732" transform="translate(299.47 35.42)" fill="#f48681"/>
      <rect id="Rectangle_96" data-name="Rectangle 96" width="6.935" height="0.25" transform="translate(302.806 11.565) rotate(11.05)" opacity="0.05"/>
      <rect id="Rectangle_97" data-name="Rectangle 97" width="8.423" height="20.561" rx="4.212" transform="translate(248.406 132.383) rotate(-25.74)" fill="#cbdae3"/>
      <g id="Group_24" data-name="Group 24" transform="translate(248.406 128.725)" opacity="0.1">
        <rect id="Rectangle_98" data-name="Rectangle 98" width="8.423" height="20.561" rx="4.212" transform="translate(0 3.658) rotate(-25.74)"/>
      </g>
      <rect id="Rectangle_99" data-name="Rectangle 99" width="8.667" height="20.561" rx="4.334" transform="translate(249.078 132.06) rotate(-25.74)" fill="#cbdae3"/>
      <rect id="Rectangle_100" data-name="Rectangle 100" width="6.549" height="15.602" transform="translate(250.671 132.94) rotate(-25.74)" fill="#f2f2f2"/>
      <ellipse id="Ellipse_12" data-name="Ellipse 12" cx="0.744" cy="0.988" rx="0.744" ry="0.988" transform="translate(260.165 146.515) rotate(-25.74)" fill="#f2f2f2"/>
    </g>
  </g>
</svg>
